<svg width="22" height="18" viewBox="0 0 22 18" fill="none" xmlns="http://www.w3.org/2000/svg">
<g id="icons">
<path id="guess" d="M7.91428 7.49999C9.89942 7.49999 11.5143 5.85523 11.5143 3.83332C11.5143 1.81142 9.89942 0.166656 7.91428 0.166656C5.92914 0.166656 4.31428 1.81142 4.31428 3.83332C4.31428 5.85523 5.92914 7.49999 7.91428 7.49999ZM7.91428 2.26189C8.76799 2.26189 9.45714 2.9638 9.45714 3.83332C9.45714 4.70285 8.76799 5.40475 7.91428 5.40475C7.06057 5.40475 6.37142 4.70285 6.37142 3.83332C6.37142 2.9638 7.06057 2.26189 7.91428 2.26189ZM7.96571 12.7381H3.56342C4.58171 12.2143 6.34057 11.6905 7.91428 11.6905C8.02742 11.6905 8.15085 11.7009 8.26399 11.7009C8.61371 10.9362 9.22056 10.3076 9.95085 9.80475C9.19999 9.66856 8.49028 9.59523 7.91428 9.59523C5.50742 9.59523 0.714279 10.8209 0.714279 13.2619V14.8333H7.91428V13.2619C7.91428 13.0838 7.93485 12.9057 7.96571 12.7381ZM15.6286 10.119C13.736 10.119 9.97142 11.1771 9.97142 13.2619V14.8333H21.2857V13.2619C21.2857 11.1771 17.5211 10.119 15.6286 10.119ZM16.8731 8.21237C17.6549 7.76189 18.2 6.91332 18.2 5.92856C18.2 4.48285 17.048 3.30951 15.6286 3.30951C14.2091 3.30951 13.0571 4.48285 13.0571 5.92856C13.0571 6.91332 13.6023 7.76189 14.384 8.21237C14.7543 8.42189 15.176 8.54761 15.6286 8.54761C16.0811 8.54761 16.5029 8.42189 16.8731 8.21237Z" fill="#2C3832"/>
</g>
</svg>
